<?xml version="1.0" encoding="UTF-8"?>
<svg xmlns="http://www.w3.org/2000/svg" xmlns:xlink="http://www.w3.org/1999/xlink" width="1920" height="1080" viewBox="0 0 1920 1080">
<defs>
<g>
<g id="glyph-0-0">
</g>
<g id="glyph-0-1">
<path d="M 0.609375 0.421875 L 0.296875 0.09375 C 0.554688 -0.164062 0.769531 -0.414062 0.9375 -0.65625 C 1.113281 -0.90625 1.253906 -1.144531 1.359375 -1.375 C 1.460938 -1.613281 1.539062 -1.84375 1.59375 -2.0625 C 1.65625 -2.289062 1.703125 -2.523438 1.734375 -2.765625 L 0.8125 -2.765625 L 0.859375 -3.171875 L 1.796875 -3.171875 L 1.90625 -4.171875 L 2.34375 -4.171875 L 2.234375 -3.171875 L 3.109375 -3.171875 C 3.242188 -3.171875 3.347656 -3.132812 3.421875 -3.0625 C 3.503906 -2.988281 3.535156 -2.894531 3.515625 -2.78125 L 3.234375 -0.453125 C 3.203125 -0.210938 3.117188 -0.015625 2.984375 0.140625 C 2.859375 0.296875 2.675781 0.375 2.4375 0.375 C 2.226562 0.375 2.054688 0.3125 1.921875 0.1875 C 1.796875 0.0703125 1.707031 -0.0820312 1.65625 -0.28125 L 2.03125 -0.4375 C 2.0625 -0.320312 2.113281 -0.234375 2.1875 -0.171875 C 2.257812 -0.109375 2.332031 -0.078125 2.40625 -0.078125 C 2.5 -0.078125 2.578125 -0.109375 2.640625 -0.171875 C 2.710938 -0.242188 2.757812 -0.359375 2.78125 -0.515625 L 3.09375 -2.765625 L 2.171875 -2.765625 C 2.140625 -2.492188 2.085938 -2.226562 2.015625 -1.96875 C 1.953125 -1.707031 1.859375 -1.445312 1.734375 -1.1875 C 1.617188 -0.925781 1.46875 -0.660156 1.28125 -0.390625 C 1.101562 -0.128906 0.878906 0.140625 0.609375 0.421875 Z M 1.34375 -3.28125 C 1.300781 -3.394531 1.25 -3.507812 1.1875 -3.625 C 1.125 -3.738281 1.054688 -3.847656 0.984375 -3.953125 L 1.328125 -4.15625 C 1.398438 -4.039062 1.46875 -3.925781 1.53125 -3.8125 C 1.59375 -3.695312 1.648438 -3.585938 1.703125 -3.484375 Z M 2.46875 -1.109375 C 2.414062 -1.242188 2.351562 -1.378906 2.28125 -1.515625 C 2.207031 -1.660156 2.128906 -1.796875 2.046875 -1.921875 L 2.40625 -2.109375 C 2.582031 -1.828125 2.722656 -1.550781 2.828125 -1.28125 Z "/>
</g>
<g id="glyph-0-2">
<path d="M 1.59375 -0.3125 C 1.425781 -0.195312 1.25 -0.0820312 1.0625 0.03125 C 0.875 0.144531 0.679688 0.242188 0.484375 0.328125 L 0.3125 -0.0625 C 0.425781 -0.101562 0.539062 -0.15625 0.65625 -0.21875 L 0.78125 -1.328125 L 0.421875 -1.328125 L 0.46875 -1.734375 L 0.8125 -1.734375 L 0.875 -2.359375 L 0.609375 -2.359375 L 0.640625 -2.703125 L 0.40625 -2.90625 C 0.539062 -3.101562 0.660156 -3.304688 0.765625 -3.515625 C 0.867188 -3.722656 0.960938 -3.957031 1.046875 -4.21875 L 1.453125 -4.140625 C 1.398438 -3.960938 1.34375 -3.796875 1.28125 -3.640625 L 1.671875 -3.640625 L 1.625 -3.234375 L 1.09375 -3.234375 C 1.007812 -3.078125 0.921875 -2.921875 0.828125 -2.765625 L 1.5625 -2.765625 L 1.53125 -2.359375 L 1.28125 -2.359375 L 1.203125 -1.734375 L 1.515625 -1.734375 L 1.46875 -1.328125 L 1.171875 -1.328125 L 1.078125 -0.4375 C 1.179688 -0.507812 1.285156 -0.582031 1.390625 -0.65625 Z M 3.171875 -0.671875 L 3.546875 -0.59375 C 3.472656 -0.28125 3.375 -0.0390625 3.25 0.125 C 3.132812 0.300781 2.96875 0.390625 2.75 0.390625 C 2.625 0.390625 2.515625 0.351562 2.421875 0.28125 C 2.328125 0.21875 2.257812 0.113281 2.21875 -0.03125 C 2.1875 -0.175781 2.179688 -0.375 2.203125 -0.625 L 2.265625 -1.234375 L 1.984375 -1.234375 L 1.9375 -0.828125 L 1.5625 -0.828125 L 1.78125 -2.890625 L 2.15625 -2.890625 L 2.03125 -1.625 L 2.3125 -1.625 L 2.484375 -3.234375 L 1.78125 -3.234375 L 1.8125 -3.640625 L 2.53125 -3.640625 L 2.578125 -4.1875 L 2.984375 -4.1875 L 2.9375 -3.640625 L 3.671875 -3.640625 L 3.640625 -3.234375 L 2.890625 -3.234375 L 2.71875 -1.625 L 3.015625 -1.625 L 3.15625 -2.890625 L 3.515625 -2.890625 L 3.34375 -1.234375 L 2.671875 -1.234375 L 2.609375 -0.640625 C 2.585938 -0.410156 2.585938 -0.25 2.609375 -0.15625 C 2.640625 -0.0625 2.691406 -0.015625 2.765625 -0.015625 C 2.847656 -0.015625 2.921875 -0.0664062 2.984375 -0.171875 C 3.054688 -0.273438 3.117188 -0.441406 3.171875 -0.671875 Z "/>
</g>
<g id="glyph-0-3">
<path d="M 1.78125 0.28125 L 1.90625 -0.890625 L 1.203125 -0.890625 C 1.148438 -0.679688 1.078125 -0.460938 0.984375 -0.234375 C 0.890625 -0.015625 0.769531 0.207031 0.625 0.4375 L 0.265625 0.1875 C 0.460938 -0.113281 0.613281 -0.40625 0.71875 -0.6875 C 0.820312 -0.976562 0.894531 -1.253906 0.9375 -1.515625 C 0.976562 -1.785156 1.015625 -2.039062 1.046875 -2.28125 L 1.109375 -2.859375 C 0.953125 -2.703125 0.789062 -2.546875 0.625 -2.390625 L 0.359375 -2.6875 C 0.628906 -2.914062 0.867188 -3.160156 1.078125 -3.421875 C 1.285156 -3.679688 1.460938 -3.957031 1.609375 -4.25 L 1.953125 -4.09375 C 1.898438 -4.007812 1.851562 -3.925781 1.8125 -3.84375 L 2.796875 -3.84375 C 2.929688 -3.84375 3.015625 -3.800781 3.046875 -3.71875 C 3.085938 -3.632812 3.066406 -3.539062 2.984375 -3.4375 L 2.703125 -3.078125 L 3.234375 -3.078125 C 3.347656 -3.078125 3.4375 -3.046875 3.5 -2.984375 C 3.5625 -2.921875 3.582031 -2.832031 3.5625 -2.71875 L 3.328125 -0.34375 C 3.304688 -0.09375 3.242188 0.09375 3.140625 0.21875 C 3.046875 0.351562 2.925781 0.421875 2.78125 0.421875 C 2.644531 0.421875 2.535156 0.375 2.453125 0.28125 C 2.367188 0.1875 2.3125 0.0546875 2.28125 -0.109375 L 2.640625 -0.203125 C 2.671875 -0.0664062 2.71875 0 2.78125 0 C 2.863281 0 2.914062 -0.113281 2.9375 -0.34375 L 3 -0.890625 L 2.3125 -0.890625 L 2.1875 0.28125 Z M 1.28125 -3.078125 L 2.21875 -3.078125 L 2.546875 -3.484375 L 1.59375 -3.484375 C 1.5 -3.347656 1.394531 -3.210938 1.28125 -3.078125 Z M 1.4375 -2.265625 C 1.4375 -2.253906 1.429688 -2.238281 1.421875 -2.21875 C 1.421875 -2.207031 1.421875 -2.195312 1.421875 -2.1875 L 2.046875 -2.1875 L 2.09375 -2.671875 L 1.484375 -2.671875 Z M 2.4375 -2.1875 L 3.125 -2.1875 L 3.1875 -2.671875 L 2.5 -2.671875 Z M 1.296875 -1.28125 L 1.953125 -1.28125 L 2.015625 -1.78125 L 1.375 -1.78125 C 1.363281 -1.707031 1.351562 -1.625 1.34375 -1.53125 C 1.332031 -1.445312 1.316406 -1.363281 1.296875 -1.28125 Z M 2.34375 -1.28125 L 3.03125 -1.28125 L 3.09375 -1.78125 L 2.40625 -1.78125 Z "/>
</g>
<g id="glyph-0-4">
<path d="M 3.53125 -3.9375 L 3.484375 -3.484375 L 0.875 -3.484375 L 0.921875 -3.9375 Z M 3.203125 -2.125 L 3.15625 -1.671875 L 0.796875 -1.671875 L 0.84375 -2.125 Z M 3.359375 -0.171875 L 3.3125 0.265625 L 0.265625 0.265625 L 0.3125 -0.171875 Z "/>
</g>
<g id="glyph-0-5">
<path d="M 3.734375 -3.953125 C 3.617188 -3.742188 3.46875 -3.53125 3.28125 -3.3125 C 3.101562 -3.09375 2.890625 -2.894531 2.640625 -2.71875 L 2.390625 -3.0625 C 2.597656 -3.195312 2.785156 -3.359375 2.953125 -3.546875 C 3.117188 -3.734375 3.269531 -3.941406 3.40625 -4.171875 Z M 0.40625 0.375 L 0.09375 0.09375 C 0.320312 -0.25 0.488281 -0.582031 0.59375 -0.90625 C 0.695312 -1.226562 0.773438 -1.5625 0.828125 -1.90625 L 0.46875 -1.90625 L 0.5 -2.328125 L 0.875 -2.328125 C 0.882812 -2.398438 0.894531 -2.472656 0.90625 -2.546875 C 0.914062 -2.628906 0.921875 -2.707031 0.921875 -2.78125 L 1.015625 -3.59375 L 0.671875 -3.59375 L 0.71875 -4.03125 L 2.46875 -4.03125 L 2.421875 -3.59375 L 2.140625 -3.59375 L 2.015625 -2.328125 L 2.375 -2.328125 L 2.328125 -1.90625 L 1.96875 -1.90625 L 1.71875 0.375 L 1.328125 0.375 L 1.578125 -1.90625 L 1.21875 -1.90625 C 1.164062 -1.507812 1.078125 -1.125 0.953125 -0.75 C 0.835938 -0.375 0.65625 0 0.40625 0.375 Z M 1.328125 -2.78125 C 1.316406 -2.707031 1.304688 -2.628906 1.296875 -2.546875 C 1.296875 -2.472656 1.289062 -2.398438 1.28125 -2.328125 L 1.625 -2.328125 L 1.75 -3.59375 L 1.421875 -3.59375 Z M 2.4375 -1.234375 L 2.203125 -1.59375 C 2.453125 -1.75 2.675781 -1.945312 2.875 -2.1875 C 3.070312 -2.425781 3.242188 -2.675781 3.390625 -2.9375 L 3.71875 -2.734375 C 3.625 -2.554688 3.507812 -2.375 3.375 -2.1875 C 3.238281 -2 3.085938 -1.820312 2.921875 -1.65625 C 2.765625 -1.488281 2.601562 -1.347656 2.4375 -1.234375 Z M 2.203125 0.328125 L 1.984375 -0.03125 C 2.253906 -0.1875 2.492188 -0.378906 2.703125 -0.609375 C 2.921875 -0.847656 3.113281 -1.117188 3.28125 -1.421875 L 3.625 -1.1875 C 3.445312 -0.875 3.242188 -0.585938 3.015625 -0.328125 C 2.785156 -0.078125 2.515625 0.140625 2.203125 0.328125 Z "/>
</g>
<g id="glyph-0-6">
<path d="M 0.90625 0.484375 C 0.769531 0.484375 0.65625 0.445312 0.5625 0.375 C 0.46875 0.3125 0.398438 0.226562 0.359375 0.125 C 0.316406 0.0195312 0.300781 -0.09375 0.3125 -0.21875 C 0.332031 -0.351562 0.375 -0.472656 0.4375 -0.578125 C 0.5 -0.691406 0.582031 -0.78125 0.6875 -0.84375 C 0.789062 -0.90625 0.910156 -0.9375 1.046875 -0.9375 C 1.179688 -0.9375 1.296875 -0.90625 1.390625 -0.84375 C 1.484375 -0.78125 1.550781 -0.691406 1.59375 -0.578125 C 1.632812 -0.472656 1.644531 -0.351562 1.625 -0.21875 C 1.613281 -0.09375 1.578125 0.0195312 1.515625 0.125 C 1.453125 0.226562 1.367188 0.3125 1.265625 0.375 C 1.160156 0.445312 1.039062 0.484375 0.90625 0.484375 Z M 0.921875 0.203125 C 1.035156 0.203125 1.128906 0.160156 1.203125 0.078125 C 1.285156 -0.00390625 1.332031 -0.101562 1.34375 -0.21875 C 1.363281 -0.34375 1.34375 -0.445312 1.28125 -0.53125 C 1.21875 -0.625 1.128906 -0.671875 1.015625 -0.671875 C 0.910156 -0.671875 0.816406 -0.625 0.734375 -0.53125 C 0.660156 -0.445312 0.617188 -0.34375 0.609375 -0.21875 C 0.585938 -0.101562 0.609375 -0.00390625 0.671875 0.078125 C 0.734375 0.160156 0.816406 0.203125 0.921875 0.203125 Z "/>
</g>
</g>
</defs>
<g fill="rgb(72.54902%, 84.313725%, 91.764706%)" fill-opacity="1">
<use xlink:href="#glyph-0-0" x="30" y="24.581055"/>
<use xlink:href="#glyph-0-1" x="31" y="24.581055"/>
<use xlink:href="#glyph-0-2" x="35" y="24.581055"/>
<use xlink:href="#glyph-0-3" x="39" y="24.581055"/>
<use xlink:href="#glyph-0-4" x="43" y="24.581055"/>
<use xlink:href="#glyph-0-3" x="47" y="24.581055"/>
<use xlink:href="#glyph-0-5" x="51" y="24.581055"/>
<use xlink:href="#glyph-0-6" x="55" y="24.581055"/>
</g>
</svg>
