<?xml version="1.0" encoding="UTF-8"?>
<svg xmlns="http://www.w3.org/2000/svg" xmlns:xlink="http://www.w3.org/1999/xlink" width="1920" height="1080" viewBox="0 0 1920 1080">
<defs>
<g>
<g id="glyph-0-0">
<path d="M 1.796875 0.4375 L 1.484375 0.09375 C 1.703125 -0.0703125 1.894531 -0.242188 2.0625 -0.421875 C 2.238281 -0.609375 2.394531 -0.8125 2.53125 -1.03125 C 2.46875 -1.207031 2.414062 -1.390625 2.375 -1.578125 C 2.332031 -1.773438 2.304688 -1.984375 2.296875 -2.203125 C 2.222656 -2.085938 2.148438 -1.976562 2.078125 -1.875 L 1.78125 -2.1875 C 1.914062 -2.375 2.035156 -2.585938 2.140625 -2.828125 C 2.253906 -3.066406 2.351562 -3.320312 2.4375 -3.59375 C 2.519531 -3.863281 2.597656 -4.132812 2.671875 -4.40625 L 3.0625 -4.28125 C 3.039062 -4.175781 3.015625 -4.070312 2.984375 -3.96875 C 2.953125 -3.863281 2.925781 -3.765625 2.90625 -3.671875 L 3.828125 -3.671875 L 3.796875 -3.234375 L 3.640625 -3.234375 C 3.566406 -2.722656 3.472656 -2.28125 3.359375 -1.90625 C 3.253906 -1.539062 3.125 -1.21875 2.96875 -0.9375 C 3.0625 -0.726562 3.164062 -0.535156 3.28125 -0.359375 C 3.394531 -0.179688 3.515625 -0.0195312 3.640625 0.125 L 3.359375 0.4375 C 3.242188 0.289062 3.128906 0.140625 3.015625 -0.015625 C 2.910156 -0.179688 2.816406 -0.359375 2.734375 -0.546875 C 2.609375 -0.359375 2.46875 -0.1875 2.3125 -0.03125 C 2.15625 0.125 1.984375 0.28125 1.796875 0.4375 Z M 2.09375 -3.421875 L 2.046875 -3.015625 L 1.53125 -3.015625 L 1.421875 -2.03125 L 1.5 -2.03125 C 1.644531 -2.03125 1.742188 -1.992188 1.796875 -1.921875 C 1.847656 -1.847656 1.867188 -1.757812 1.859375 -1.65625 L 1.6875 -0.09375 L 0.765625 -0.09375 L 0.71875 0.296875 L 0.3125 0.296875 L 0.5625 -2.03125 L 0.984375 -2.03125 L 1.09375 -3.015625 L 0.546875 -3.015625 L 0.59375 -3.421875 L 1.125 -3.421875 L 1.234375 -4.390625 L 1.671875 -4.390625 L 1.5625 -3.421875 Z M 2.609375 -2.84375 C 2.609375 -2.59375 2.617188 -2.359375 2.640625 -2.140625 C 2.671875 -1.921875 2.71875 -1.71875 2.78125 -1.53125 C 2.875 -1.75 2.957031 -2 3.03125 -2.28125 C 3.101562 -2.5625 3.164062 -2.878906 3.21875 -3.234375 L 2.75 -3.234375 C 2.707031 -3.097656 2.660156 -2.96875 2.609375 -2.84375 Z M 0.8125 -0.5 L 1.3125 -0.5 L 1.4375 -1.625 L 0.9375 -1.625 Z "/>
</g>
<g id="glyph-0-1">
<path d="M 2.28125 -0.4375 C 2.320312 -0.1875 2.410156 -0.0625 2.546875 -0.0625 C 2.617188 -0.0625 2.675781 -0.0859375 2.71875 -0.140625 C 2.769531 -0.203125 2.804688 -0.328125 2.828125 -0.515625 L 3.109375 -3.1875 L 2.0625 -3.1875 L 2.109375 -3.640625 L 3.15625 -3.640625 L 3.234375 -4.390625 L 3.6875 -4.390625 L 3.609375 -3.640625 L 3.90625 -3.640625 L 3.859375 -3.1875 L 3.5625 -3.1875 L 3.265625 -0.390625 C 3.234375 -0.140625 3.160156 0.0507812 3.046875 0.1875 C 2.941406 0.332031 2.785156 0.40625 2.578125 0.40625 C 2.367188 0.40625 2.203125 0.335938 2.078125 0.203125 C 1.960938 0.078125 1.882812 -0.101562 1.84375 -0.34375 Z M 1.453125 -0.34375 C 1.421875 -0.476562 1.382812 -0.609375 1.34375 -0.734375 C 1.3125 -0.867188 1.273438 -1 1.234375 -1.125 C 1.023438 -0.65625 0.757812 -0.207031 0.4375 0.21875 L 0.109375 -0.09375 C 0.492188 -0.59375 0.800781 -1.15625 1.03125 -1.78125 C 0.96875 -1.988281 0.894531 -2.195312 0.8125 -2.40625 C 0.738281 -2.613281 0.664062 -2.816406 0.59375 -3.015625 L 0.96875 -3.15625 C 1.0625 -2.90625 1.15625 -2.65625 1.25 -2.40625 C 1.363281 -2.800781 1.445312 -3.210938 1.5 -3.640625 L 0.640625 -3.640625 L 0.6875 -4.09375 L 1.5625 -4.09375 C 1.707031 -4.09375 1.804688 -4.046875 1.859375 -3.953125 C 1.921875 -3.867188 1.945312 -3.769531 1.9375 -3.65625 C 1.882812 -3.289062 1.816406 -2.945312 1.734375 -2.625 C 1.660156 -2.3125 1.570312 -2.007812 1.46875 -1.71875 C 1.53125 -1.507812 1.59375 -1.300781 1.65625 -1.09375 C 1.71875 -0.894531 1.773438 -0.695312 1.828125 -0.5 Z M 2.28125 -1.3125 C 2.25 -1.488281 2.207031 -1.679688 2.15625 -1.890625 C 2.113281 -2.097656 2.054688 -2.304688 1.984375 -2.515625 L 2.390625 -2.65625 C 2.460938 -2.445312 2.519531 -2.238281 2.5625 -2.03125 C 2.613281 -1.832031 2.65625 -1.628906 2.6875 -1.421875 Z "/>
</g>
<g id="glyph-0-2">
<path d="M 0.421875 -0.484375 L 0.140625 -0.625 C 0.273438 -0.945312 0.398438 -1.285156 0.515625 -1.640625 C 0.640625 -2.003906 0.742188 -2.375 0.828125 -2.75 L 0.5625 -2.75 L 0.609375 -3.140625 L 1.015625 -3.140625 L 1.078125 -3.765625 C 0.984375 -3.734375 0.890625 -3.707031 0.796875 -3.6875 L 0.671875 -4.09375 C 0.835938 -4.132812 1.007812 -4.179688 1.1875 -4.234375 C 1.375 -4.296875 1.539062 -4.351562 1.6875 -4.40625 L 1.828125 -4.03125 C 1.722656 -3.976562 1.609375 -3.929688 1.484375 -3.890625 L 1.40625 -3.140625 L 1.734375 -3.140625 L 1.703125 -2.859375 C 1.847656 -3.097656 1.972656 -3.359375 2.078125 -3.640625 C 2.191406 -3.921875 2.269531 -4.179688 2.3125 -4.421875 L 2.71875 -4.359375 C 2.6875 -4.160156 2.632812 -3.960938 2.5625 -3.765625 L 3.546875 -3.765625 C 3.691406 -3.765625 3.785156 -3.722656 3.828125 -3.640625 C 3.878906 -3.554688 3.878906 -3.460938 3.828125 -3.359375 C 3.734375 -3.046875 3.601562 -2.738281 3.4375 -2.4375 L 3.046875 -2.578125 C 3.117188 -2.703125 3.179688 -2.828125 3.234375 -2.953125 C 3.296875 -3.085938 3.351562 -3.21875 3.40625 -3.34375 L 2.40625 -3.34375 C 2.34375 -3.207031 2.273438 -3.066406 2.203125 -2.921875 C 2.140625 -2.785156 2.066406 -2.65625 1.984375 -2.53125 L 1.640625 -2.75 L 1.359375 -2.75 L 1.3125 -2.28125 C 1.40625 -2.164062 1.507812 -2.035156 1.625 -1.890625 L 1.4375 -1.578125 C 1.40625 -1.628906 1.375 -1.675781 1.34375 -1.71875 C 1.320312 -1.757812 1.296875 -1.796875 1.265625 -1.828125 L 1.03125 0.40625 L 0.640625 0.40625 L 0.90625 -2 C 0.84375 -1.738281 0.769531 -1.476562 0.6875 -1.21875 C 0.613281 -0.96875 0.523438 -0.722656 0.421875 -0.484375 Z M 2.921875 -2.953125 L 2.6875 -0.25 C 2.65625 0 2.582031 0.175781 2.46875 0.28125 C 2.363281 0.382812 2.234375 0.4375 2.078125 0.4375 C 1.929688 0.4375 1.804688 0.382812 1.703125 0.28125 C 1.609375 0.175781 1.546875 0.015625 1.515625 -0.203125 L 1.90625 -0.296875 C 1.925781 -0.160156 1.953125 -0.0703125 1.984375 -0.03125 C 2.023438 0 2.0625 0.015625 2.09375 0.015625 C 2.195312 0.015625 2.257812 -0.0859375 2.28125 -0.296875 L 2.515625 -2.953125 Z M 1.703125 -0.4375 L 1.34375 -0.625 C 1.476562 -0.90625 1.585938 -1.1875 1.671875 -1.46875 C 1.765625 -1.75 1.835938 -2.023438 1.890625 -2.296875 L 2.265625 -2.21875 C 2.210938 -1.9375 2.140625 -1.644531 2.046875 -1.34375 C 1.960938 -1.039062 1.847656 -0.738281 1.703125 -0.4375 Z M 3.0625 -2.1875 L 3.421875 -2.21875 C 3.421875 -1.90625 3.425781 -1.582031 3.4375 -1.25 C 3.457031 -0.914062 3.492188 -0.617188 3.546875 -0.359375 L 3.171875 -0.234375 C 3.128906 -0.429688 3.097656 -0.640625 3.078125 -0.859375 C 3.066406 -1.085938 3.0625 -1.3125 3.0625 -1.53125 C 3.0625 -1.757812 3.0625 -1.976562 3.0625 -2.1875 Z "/>
</g>
<g id="glyph-0-3">
<path d="M 1.609375 0.40625 L 1.796875 -1.4375 L 0.578125 -1.4375 L 0.8125 -3.5625 L 2.015625 -3.5625 L 2.109375 -4.4375 L 2.5625 -4.4375 L 2.46875 -3.5625 L 3.3125 -3.5625 C 3.457031 -3.5625 3.554688 -3.519531 3.609375 -3.4375 C 3.671875 -3.363281 3.695312 -3.269531 3.6875 -3.15625 L 3.5 -1.4375 L 2.265625 -1.4375 L 2.0625 0.40625 Z M 1.078125 -1.875 L 1.84375 -1.875 L 1.96875 -3.125 L 1.203125 -3.125 Z M 2.3125 -1.875 L 3.09375 -1.875 L 3.234375 -3.125 L 2.4375 -3.125 Z "/>
</g>
<g id="glyph-0-4">
<path d="M 2.8125 -2.234375 L 2.390625 -2.140625 C 2.328125 -2.566406 2.253906 -2.953125 2.171875 -3.296875 C 2.085938 -3.640625 1.984375 -3.976562 1.859375 -4.3125 L 2.28125 -4.4375 C 2.40625 -4.101562 2.507812 -3.753906 2.59375 -3.390625 C 2.6875 -3.035156 2.757812 -2.648438 2.8125 -2.234375 Z M 1.953125 -3.484375 L 1.671875 -1.0625 C 1.628906 -0.789062 1.617188 -0.578125 1.640625 -0.421875 C 1.660156 -0.273438 1.703125 -0.171875 1.765625 -0.109375 C 1.828125 -0.0546875 1.910156 -0.03125 2.015625 -0.03125 C 2.179688 -0.03125 2.3125 -0.117188 2.40625 -0.296875 C 2.5 -0.484375 2.570312 -0.769531 2.625 -1.15625 L 3.0625 -1.0625 C 3 -0.5625 2.878906 -0.1875 2.703125 0.0625 C 2.535156 0.3125 2.296875 0.4375 1.984375 0.4375 C 1.847656 0.4375 1.722656 0.410156 1.609375 0.359375 C 1.503906 0.316406 1.414062 0.238281 1.34375 0.125 C 1.269531 0.0195312 1.21875 -0.128906 1.1875 -0.328125 C 1.164062 -0.523438 1.175781 -0.78125 1.21875 -1.09375 L 1.5 -3.484375 Z M 3.328125 -3.03125 C 3.429688 -2.570312 3.507812 -2.09375 3.5625 -1.59375 C 3.613281 -1.101562 3.640625 -0.59375 3.640625 -0.0625 L 3.203125 -0.03125 C 3.203125 -0.550781 3.175781 -1.054688 3.125 -1.546875 C 3.082031 -2.035156 3.007812 -2.5 2.90625 -2.9375 Z M 1.296875 -2.953125 C 1.222656 -2.453125 1.128906 -1.960938 1.015625 -1.484375 C 0.910156 -1.003906 0.757812 -0.515625 0.5625 -0.015625 L 0.125 -0.1875 C 0.257812 -0.519531 0.367188 -0.835938 0.453125 -1.140625 C 0.546875 -1.441406 0.625 -1.742188 0.6875 -2.046875 C 0.75 -2.359375 0.804688 -2.679688 0.859375 -3.015625 Z "/>
</g>
<g id="glyph-0-5">
<path d="M 0.640625 0.4375 L 0.3125 0.09375 C 0.59375 -0.175781 0.820312 -0.441406 1 -0.703125 C 1.1875 -0.960938 1.332031 -1.210938 1.4375 -1.453125 C 1.550781 -1.703125 1.640625 -1.945312 1.703125 -2.1875 C 1.765625 -2.4375 1.8125 -2.6875 1.84375 -2.9375 L 0.859375 -2.9375 L 0.90625 -3.359375 L 1.90625 -3.359375 L 2.03125 -4.421875 L 2.484375 -4.421875 L 2.359375 -3.359375 L 3.296875 -3.359375 C 3.441406 -3.359375 3.550781 -3.316406 3.625 -3.234375 C 3.707031 -3.160156 3.738281 -3.0625 3.71875 -2.9375 L 3.421875 -0.484375 C 3.390625 -0.234375 3.300781 -0.0234375 3.15625 0.140625 C 3.019531 0.316406 2.828125 0.40625 2.578125 0.40625 C 2.359375 0.40625 2.179688 0.335938 2.046875 0.203125 C 1.910156 0.078125 1.816406 -0.0859375 1.765625 -0.296875 L 2.15625 -0.46875 C 2.1875 -0.34375 2.238281 -0.242188 2.3125 -0.171875 C 2.394531 -0.109375 2.476562 -0.078125 2.5625 -0.078125 C 2.65625 -0.078125 2.738281 -0.113281 2.8125 -0.1875 C 2.882812 -0.257812 2.929688 -0.378906 2.953125 -0.546875 L 3.265625 -2.9375 L 2.3125 -2.9375 C 2.269531 -2.644531 2.210938 -2.359375 2.140625 -2.078125 C 2.066406 -1.804688 1.96875 -1.53125 1.84375 -1.25 C 1.71875 -0.976562 1.554688 -0.703125 1.359375 -0.421875 C 1.171875 -0.140625 0.929688 0.144531 0.640625 0.4375 Z M 1.4375 -3.484375 C 1.382812 -3.609375 1.320312 -3.726562 1.25 -3.84375 C 1.1875 -3.96875 1.117188 -4.082031 1.046875 -4.1875 L 1.40625 -4.40625 C 1.488281 -4.28125 1.5625 -4.15625 1.625 -4.03125 C 1.695312 -3.914062 1.753906 -3.800781 1.796875 -3.6875 Z M 2.609375 -1.171875 C 2.554688 -1.316406 2.492188 -1.460938 2.421875 -1.609375 C 2.347656 -1.753906 2.265625 -1.894531 2.171875 -2.03125 L 2.546875 -2.234375 C 2.734375 -1.929688 2.878906 -1.640625 2.984375 -1.359375 Z "/>
</g>
<g id="glyph-0-6">
</g>
</g>
</defs>
<g fill="rgb(100%, 98.431373%, 12.156863%)" fill-opacity="1">
<use xlink:href="#glyph-0-0" x="30" y="24.849609"/>
<use xlink:href="#glyph-0-1" x="34" y="24.849609"/>
<use xlink:href="#glyph-0-2" x="38" y="24.849609"/>
<use xlink:href="#glyph-0-3" x="42" y="24.849609"/>
<use xlink:href="#glyph-0-4" x="46" y="24.849609"/>
<use xlink:href="#glyph-0-5" x="50" y="24.849609"/>
<use xlink:href="#glyph-0-6" x="54" y="24.849609"/>
</g>
</svg>
