<?xml version="1.0" encoding="UTF-8"?>
<svg xmlns="http://www.w3.org/2000/svg" xmlns:xlink="http://www.w3.org/1999/xlink" width="1920" height="1080" viewBox="0 0 1920 1080">
<defs>
<g>
<g id="glyph-0-0">
<path d="M 1.015625 -0.515625 L 1.53125 -0.40625 C 1.488281 -0.269531 1.429688 -0.125 1.359375 0.03125 C 1.296875 0.195312 1.222656 0.359375 1.140625 0.515625 C 1.066406 0.671875 0.988281 0.816406 0.90625 0.953125 C 0.832031 1.097656 0.765625 1.21875 0.703125 1.3125 L 0.390625 1.171875 C 0.515625 0.910156 0.632812 0.628906 0.75 0.328125 C 0.875 0.0234375 0.960938 -0.253906 1.015625 -0.515625 Z "/>
</g>
<g id="glyph-0-1">
<path d="M 1.921875 -4.140625 L 1.46875 -3.875 C 1.382812 -4.0625 1.289062 -4.242188 1.1875 -4.421875 C 1.09375 -4.597656 0.988281 -4.757812 0.875 -4.90625 L 1.34375 -5.171875 C 1.457031 -5.003906 1.5625 -4.832031 1.65625 -4.65625 C 1.757812 -4.488281 1.847656 -4.316406 1.921875 -4.140625 Z M 4.375 -2.953125 C 4.300781 -2.929688 4.226562 -2.910156 4.15625 -2.890625 C 4.09375 -2.878906 4.015625 -2.875 3.921875 -2.875 C 3.734375 -2.875 3.597656 -2.9375 3.515625 -3.0625 C 3.441406 -3.1875 3.421875 -3.390625 3.453125 -3.671875 L 3.53125 -4.46875 L 2.84375 -4.46875 L 2.828125 -4.296875 C 2.796875 -4.003906 2.734375 -3.734375 2.640625 -3.484375 C 2.546875 -3.242188 2.367188 -3.015625 2.109375 -2.796875 L 1.828125 -3.203125 C 1.941406 -3.296875 2.03125 -3.394531 2.09375 -3.5 C 2.164062 -3.613281 2.21875 -3.742188 2.25 -3.890625 C 2.289062 -4.046875 2.320312 -4.234375 2.34375 -4.453125 L 2.40625 -4.984375 L 3.609375 -4.984375 C 3.921875 -4.984375 4.0625 -4.828125 4.03125 -4.515625 L 3.9375 -3.71875 C 3.925781 -3.59375 3.925781 -3.5 3.9375 -3.4375 C 3.957031 -3.375 4.003906 -3.34375 4.078125 -3.34375 C 4.117188 -3.34375 4.160156 -3.347656 4.203125 -3.359375 C 4.242188 -3.367188 4.296875 -3.390625 4.359375 -3.421875 Z M 0.609375 0.0625 L 0.34375 -0.359375 C 0.53125 -0.460938 0.710938 -0.578125 0.890625 -0.703125 L 1.125 -2.921875 L 0.59375 -2.921875 L 0.640625 -3.453125 L 1.171875 -3.453125 C 1.335938 -3.453125 1.457031 -3.398438 1.53125 -3.296875 C 1.613281 -3.203125 1.644531 -3.085938 1.625 -2.953125 L 1.421875 -1.09375 C 1.554688 -1.207031 1.691406 -1.328125 1.828125 -1.453125 L 2.140625 -1.0625 C 1.890625 -0.84375 1.640625 -0.640625 1.390625 -0.453125 C 1.140625 -0.265625 0.878906 -0.09375 0.609375 0.0625 Z M 1.65625 0.453125 L 1.421875 0.015625 C 1.617188 -0.078125 1.820312 -0.1875 2.03125 -0.3125 C 2.238281 -0.445312 2.429688 -0.601562 2.609375 -0.78125 C 2.367188 -1.175781 2.207031 -1.628906 2.125 -2.140625 L 1.875 -2.140625 L 1.9375 -2.640625 L 3.625 -2.640625 C 3.832031 -2.640625 3.960938 -2.578125 4.015625 -2.453125 C 4.078125 -2.335938 4.078125 -2.203125 4.015625 -2.046875 C 3.835938 -1.554688 3.582031 -1.117188 3.25 -0.734375 C 3.363281 -0.597656 3.492188 -0.46875 3.640625 -0.34375 C 3.796875 -0.21875 3.96875 -0.101562 4.15625 0 L 3.875 0.453125 C 3.488281 0.210938 3.164062 -0.0625 2.90625 -0.375 C 2.539062 -0.0390625 2.125 0.234375 1.65625 0.453125 Z M 2.609375 -2.140625 C 2.628906 -1.972656 2.664062 -1.804688 2.71875 -1.640625 C 2.78125 -1.472656 2.859375 -1.304688 2.953125 -1.140625 C 3.078125 -1.285156 3.1875 -1.441406 3.28125 -1.609375 C 3.382812 -1.773438 3.46875 -1.953125 3.53125 -2.140625 Z "/>
</g>
</g>
</defs>
<g fill="rgb(100%, 98.431373%, 12.156863%)" fill-opacity="1">
<use xlink:href="#glyph-0-0" x="30" y="25.658203"/>
<use xlink:href="#glyph-0-1" x="35" y="25.658203"/>
</g>
</svg>
